<?xml version="1.0" encoding="UTF-8"?>
<svg xmlns="http://www.w3.org/2000/svg" xmlns:xlink="http://www.w3.org/1999/xlink" width="50pt" height="50pt" viewBox="0 0 50 50" version="1.1">
<g id="surface1">
<path style=" stroke:none;fill-rule:nonzero;fill:white;fill-opacity:1;" d="M 45.671875 35.554688 C 46.714844 35.132812 47.460938 34.0625 47.460938 32.8125 L 47.460938 25 C 47.460938 23.382812 46.21875 22.070312 44.695312 22.070312 L 40.136719 22.070312 L 40.136719 15.265625 C 40.136719 14.75 39.933594 14.277344 39.609375 13.921875 C 40.296875 13.109375 40.800781 11.726562 39.875 9.507812 C 39.222656 7.953125 38.09375 6.523438 37.476562 5.808594 C 37.289062 5.59375 37.019531 5.46875 36.734375 5.46875 C 36.453125 5.46875 36.183594 5.59375 35.996094 5.808594 C 33.066406 9.203125 32.316406 12.058594 33.851562 13.902344 C 33.511719 14.257812 33.300781 14.738281 33.300781 15.265625 L 33.300781 22.070312 L 28.417969 22.070312 L 28.417969 12.335938 C 28.417969 11.820312 28.214844 11.347656 27.890625 10.992188 C 28.578125 10.179688 29.082031 8.796875 28.15625 6.578125 C 27.503906 5.023438 26.375 3.59375 25.757812 2.878906 C 25.570312 2.664062 25.300781 2.539062 25.015625 2.539062 C 24.734375 2.539062 24.464844 2.664062 24.277344 2.878906 C 21.347656 6.273438 20.597656 9.128906 22.132812 10.96875 C 21.792969 11.328125 21.582031 11.808594 21.582031 12.335938 L 21.582031 22.070312 L 16.699219 22.070312 L 16.699219 15.265625 C 16.699219 14.75 16.496094 14.277344 16.171875 13.921875 C 16.859375 13.109375 17.363281 11.726562 16.4375 9.507812 C 15.785156 7.953125 14.65625 6.523438 14.039062 5.808594 C 13.851562 5.59375 13.582031 5.46875 13.296875 5.46875 C 13.015625 5.46875 12.746094 5.59375 12.558594 5.808594 C 9.628906 9.203125 8.878906 12.058594 10.414062 13.898438 C 10.074219 14.257812 9.863281 14.738281 9.863281 15.265625 L 9.863281 22.070312 L 5.304688 22.070312 C 3.78125 22.070312 2.539062 23.382812 2.539062 25 L 2.539062 32.8125 C 2.539062 34.0625 3.285156 35.132812 4.328125 35.554688 L 4.328125 44.53125 C 4.328125 44.875 4.386719 45.203125 4.488281 45.507812 L 3.804688 45.507812 C 3.265625 45.507812 2.828125 45.945312 2.828125 46.484375 C 2.828125 47.023438 3.265625 47.460938 3.804688 47.460938 L 46.195312 47.460938 C 46.734375 47.460938 47.171875 47.023438 47.171875 46.484375 C 47.171875 45.945312 46.734375 45.507812 46.195312 45.507812 L 45.511719 45.507812 C 45.613281 45.203125 45.671875 44.875 45.671875 44.53125 Z M 36.730469 8.007812 C 37.90625 9.601562 39.039062 11.769531 38.023438 12.761719 C 37.679688 13.097656 37.222656 13.28125 36.738281 13.28125 L 36.726562 13.28125 C 36.234375 13.277344 35.785156 13.097656 35.457031 12.769531 C 34.332031 11.644531 35.6875 9.398438 36.730469 8.007812 Z M 35.253906 15.265625 C 35.253906 15.25 35.269531 15.234375 35.285156 15.234375 L 36.734375 15.234375 C 36.738281 15.234375 36.738281 15.234375 36.738281 15.234375 L 38.152344 15.234375 C 38.167969 15.234375 38.183594 15.25 38.183594 15.265625 L 38.183594 22.070312 L 35.253906 22.070312 Z M 25.011719 5.078125 C 26.1875 6.671875 27.320312 8.839844 26.304688 9.832031 C 25.960938 10.167969 25.503906 10.351562 25.019531 10.351562 L 25.003906 10.351562 C 24.515625 10.347656 24.066406 10.167969 23.738281 9.839844 C 22.613281 8.714844 23.96875 6.46875 25.011719 5.078125 Z M 26.464844 12.335938 L 26.464844 22.070312 L 23.535156 22.070312 L 23.535156 12.335938 C 23.535156 12.320312 23.550781 12.304688 23.566406 12.304688 L 25.015625 12.304688 C 25.019531 12.304688 25.019531 12.304688 25.019531 12.304688 L 26.433594 12.304688 C 26.449219 12.304688 26.464844 12.320312 26.464844 12.335938 Z M 13.292969 8.007812 C 14.46875 9.601562 15.601562 11.769531 14.585938 12.761719 C 14.242188 13.097656 13.785156 13.28125 13.300781 13.28125 L 13.285156 13.28125 C 12.796875 13.277344 12.347656 13.097656 12.019531 12.769531 C 10.894531 11.644531 12.25 9.398438 13.292969 8.007812 Z M 11.816406 15.265625 C 11.816406 15.25 11.832031 15.234375 11.847656 15.234375 L 13.296875 15.234375 C 13.300781 15.234375 13.300781 15.234375 13.300781 15.234375 L 14.714844 15.234375 C 14.730469 15.234375 14.746094 15.25 14.746094 15.265625 L 14.746094 22.070312 L 11.816406 22.070312 Z M 43.71875 36.363281 L 40.6875 36.363281 C 40.148438 36.363281 39.710938 36.796875 39.710938 37.339844 C 39.710938 37.878906 40.148438 38.316406 40.6875 38.316406 L 43.71875 38.316406 L 43.71875 44.53125 C 43.71875 45.058594 43.34375 45.507812 42.902344 45.507812 L 7.09375 45.507812 C 6.65625 45.507812 6.28125 45.058594 6.28125 44.53125 L 6.28125 43.785156 L 9.3125 43.785156 C 9.851562 43.785156 10.289062 43.347656 10.289062 42.808594 C 10.289062 42.265625 9.851562 41.832031 9.3125 41.832031 L 6.28125 41.832031 L 6.28125 35.554688 C 7.328125 35.132812 8.074219 34.0625 8.074219 32.8125 L 8.074219 29.90625 C 8.074219 29.257812 8.535156 28.710938 9.085938 28.710938 C 9.632812 28.710938 10.097656 29.257812 10.097656 29.90625 L 10.097656 33.914062 C 10.097656 35.652344 11.429688 37.0625 13.0625 37.0625 C 14.699219 37.0625 16.03125 35.652344 16.03125 33.914062 L 16.03125 29.90625 C 16.03125 29.257812 16.492188 28.710938 17.042969 28.710938 C 17.589844 28.710938 18.054688 29.257812 18.054688 29.90625 L 18.054688 30.15625 C 18.054688 31.890625 19.386719 33.304688 21.019531 33.304688 C 22.65625 33.304688 23.988281 31.890625 23.988281 30.15625 L 23.988281 29.90625 C 23.988281 29.257812 24.449219 28.710938 25 28.710938 C 25.550781 28.710938 26.011719 29.257812 26.011719 29.90625 L 26.011719 31.960938 C 26.011719 33.699219 27.34375 35.109375 28.976562 35.109375 C 30.613281 35.109375 31.945312 33.699219 31.945312 31.960938 L 31.945312 29.90625 C 31.945312 29.257812 32.40625 28.710938 32.957031 28.710938 C 33.507812 28.710938 33.96875 29.257812 33.96875 29.90625 L 33.96875 30.15625 C 33.96875 31.890625 35.300781 33.304688 36.9375 33.304688 C 38.570312 33.304688 39.902344 31.890625 39.902344 30.15625 L 39.902344 29.90625 C 39.902344 29.257812 40.363281 28.710938 40.914062 28.710938 C 41.464844 28.710938 41.925781 29.257812 41.925781 29.90625 L 41.925781 32.8125 C 41.925781 34.0625 42.671875 35.132812 43.71875 35.554688 Z M 45.507812 32.8125 C 45.507812 33.34375 45.136719 33.789062 44.695312 33.789062 C 44.253906 33.789062 43.878906 33.34375 43.878906 32.8125 L 43.878906 29.90625 C 43.878906 28.171875 42.550781 26.757812 40.914062 26.757812 C 39.277344 26.757812 37.949219 28.171875 37.949219 29.90625 L 37.949219 30.15625 C 37.949219 30.804688 37.484375 31.347656 36.9375 31.347656 C 36.386719 31.347656 35.921875 30.804688 35.921875 30.15625 L 35.921875 29.90625 C 35.921875 28.171875 34.59375 26.757812 32.957031 26.757812 C 31.320312 26.757812 29.992188 28.171875 29.992188 29.90625 L 29.992188 31.960938 C 29.992188 32.609375 29.527344 33.15625 28.980469 33.15625 C 28.429688 33.15625 27.964844 32.609375 27.964844 31.960938 L 27.964844 29.90625 C 27.964844 28.171875 26.636719 26.757812 25 26.757812 C 23.363281 26.757812 22.035156 28.171875 22.035156 29.90625 L 22.035156 30.15625 C 22.035156 30.804688 21.570312 31.347656 21.023438 31.347656 C 20.472656 31.347656 20.007812 30.804688 20.007812 30.15625 L 20.007812 29.90625 C 20.007812 28.171875 18.679688 26.757812 17.042969 26.757812 C 15.40625 26.757812 14.078125 28.171875 14.078125 29.90625 L 14.078125 33.914062 C 14.078125 34.5625 13.613281 35.109375 13.0625 35.109375 C 12.515625 35.109375 12.050781 34.5625 12.050781 33.914062 L 12.050781 29.90625 C 12.050781 28.171875 10.722656 26.757812 9.085938 26.757812 C 7.449219 26.757812 6.121094 28.171875 6.121094 29.90625 L 6.121094 32.8125 C 6.121094 33.34375 5.746094 33.789062 5.304688 33.789062 C 4.863281 33.789062 4.492188 33.34375 4.492188 32.8125 L 4.492188 25 C 4.492188 24.472656 4.863281 24.023438 5.304688 24.023438 L 44.695312 24.023438 C 45.136719 24.023438 45.507812 24.472656 45.507812 25 Z M 45.507812 32.8125 "/>
<path style=" stroke:none;fill-rule:nonzero;fill:rgb(0%,0%,0%);fill-opacity:1;" d="M 49.023438 45.507812 L 49 45.507812 C 48.460938 45.507812 48.023438 45.945312 48.023438 46.484375 C 48.023438 47.023438 48.460938 47.460938 49 47.460938 L 49.023438 47.460938 C 49.5625 47.460938 50 47.023438 50 46.484375 C 50 45.945312 49.5625 45.507812 49.023438 45.507812 Z M 49.023438 45.507812 "/>
<path style=" stroke:none;fill-rule:nonzero;fill:rgb(0%,0%,0%);fill-opacity:1;" d="M 1 45.507812 L 0.976562 45.507812 C 0.4375 45.507812 0 45.945312 0 46.484375 C 0 47.023438 0.4375 47.460938 0.976562 47.460938 L 1 47.460938 C 1.539062 47.460938 1.976562 47.023438 1.976562 46.484375 C 1.976562 45.945312 1.539062 45.507812 1 45.507812 Z M 1 45.507812 "/>
<path style=" stroke:none;fill-rule:nonzero;fill:rgb(0%,0%,0%);fill-opacity:1;" d="M 12.140625 41.832031 L 12.117188 41.832031 C 11.578125 41.832031 11.140625 42.265625 11.140625 42.808594 C 11.140625 43.347656 11.578125 43.785156 12.117188 43.785156 L 12.140625 43.785156 C 12.679688 43.785156 13.117188 43.347656 13.117188 42.808594 C 13.117188 42.265625 12.679688 41.832031 12.140625 41.832031 Z M 12.140625 41.832031 "/>
<path style=" stroke:none;fill-rule:nonzero;fill:rgb(0%,0%,0%);fill-opacity:1;" d="M 37.882812 36.363281 L 37.859375 36.363281 C 37.320312 36.363281 36.882812 36.800781 36.882812 37.339844 C 36.882812 37.878906 37.320312 38.316406 37.859375 38.316406 L 37.882812 38.316406 C 38.421875 38.316406 38.859375 37.878906 38.859375 37.339844 C 38.859375 36.800781 38.421875 36.363281 37.882812 36.363281 Z M 37.882812 36.363281 "/>
<path style=" stroke:none;fill-rule:nonzero;fill:rgb(0%,0%,0%);fill-opacity:1;" d="M 24.882812 35.875 L 23.027344 35.875 C 22.488281 35.875 22.050781 36.3125 22.050781 36.851562 C 22.050781 37.390625 22.488281 37.828125 23.027344 37.828125 L 24.882812 37.828125 C 25.421875 37.828125 25.859375 37.390625 25.859375 36.851562 C 25.859375 36.3125 25.421875 35.875 24.882812 35.875 Z M 24.882812 35.875 "/>
<path style=" stroke:none;fill-rule:nonzero;fill:rgb(0%,0%,0%);fill-opacity:1;" d="M 17.851562 38.65625 L 16.582031 38.65625 C 16.042969 38.65625 15.605469 39.09375 15.605469 39.632812 C 15.605469 40.171875 16.042969 40.609375 16.582031 40.609375 L 17.851562 40.609375 C 18.390625 40.609375 18.828125 40.171875 18.828125 39.632812 C 18.828125 39.09375 18.390625 38.65625 17.851562 38.65625 Z M 17.851562 38.65625 "/>
<path style=" stroke:none;fill-rule:nonzero;fill:rgb(0%,0%,0%);fill-opacity:1;" d="M 39.628906 41.832031 L 37.382812 41.832031 C 36.84375 41.832031 36.40625 42.265625 36.40625 42.808594 C 36.40625 43.347656 36.84375 43.785156 37.382812 43.785156 L 39.628906 43.785156 C 40.167969 43.785156 40.605469 43.347656 40.605469 42.808594 C 40.605469 42.265625 40.167969 41.832031 39.628906 41.832031 Z M 39.628906 41.832031 "/>
<path style=" stroke:none;fill-rule:nonzero;fill:rgb(0%,0%,0%);fill-opacity:1;" d="M 32.550781 37.730469 L 31.28125 37.730469 C 30.742188 37.730469 30.304688 38.167969 30.304688 38.707031 C 30.304688 39.246094 30.742188 39.683594 31.28125 39.683594 L 32.550781 39.683594 C 33.089844 39.683594 33.527344 39.246094 33.527344 38.707031 C 33.527344 38.167969 33.089844 37.730469 32.550781 37.730469 Z M 32.550781 37.730469 "/>
<path style=" stroke:none;fill-rule:nonzero;fill:rgb(0%,0%,0%);fill-opacity:1;" d="M 27.082031 41.832031 L 25.8125 41.832031 C 25.273438 41.832031 24.835938 42.265625 24.835938 42.808594 C 24.835938 43.347656 25.273438 43.785156 25.8125 43.785156 L 27.082031 43.785156 C 27.621094 43.785156 28.058594 43.347656 28.058594 42.808594 C 28.058594 42.265625 27.621094 41.832031 27.082031 41.832031 Z M 27.082031 41.832031 "/>
</g>
</svg>
