<?xml version="1.0" encoding="UTF-8"?>
<svg xmlns="http://www.w3.org/2000/svg" xmlns:xlink="http://www.w3.org/1999/xlink" width="50pt" height="50pt" viewBox="0 0 50 50" version="1.1">
<g id="surface1">
<path style=" stroke:none;fill-rule:nonzero;fill:white;fill-opacity:1;" d="M 47.605469 38.769531 L 47.292969 38.769531 L 47.292969 35.988281 C 47.28125 25.761719 40.320312 16.847656 30.398438 14.359375 L 30.398438 12.28125 C 30.394531 11.039062 29.390625 10.035156 28.152344 10.035156 L 27.476562 10.035156 L 27.476562 8.921875 C 27.476562 7.554688 26.367188 6.445312 25 6.445312 C 23.632812 6.445312 22.523438 7.554688 22.523438 8.921875 L 22.523438 10.035156 L 21.851562 10.035156 C 20.609375 10.035156 19.605469 11.039062 19.605469 12.28125 L 19.605469 14.359375 C 9.683594 16.847656 2.722656 25.761719 2.707031 35.988281 L 2.707031 38.769531 L 2.394531 38.769531 C 1.074219 38.769531 0 39.839844 0 41.160156 C 0 42.484375 1.074219 43.554688 2.394531 43.554688 L 47.605469 43.554688 C 48.929688 43.554688 50 42.484375 50 41.160156 C 50 39.839844 48.929688 38.769531 47.605469 38.769531 Z M 23.890625 8.925781 C 23.890625 8.3125 24.386719 7.816406 25 7.816406 C 25.613281 7.816406 26.109375 8.3125 26.109375 8.925781 L 26.109375 10.035156 L 23.890625 10.035156 Z M 20.972656 12.28125 C 20.972656 11.796875 21.367188 11.402344 21.851562 11.402344 L 28.148438 11.402344 C 28.632812 11.402344 29.027344 11.796875 29.027344 12.28125 L 29.027344 14.070312 C 26.367188 13.574219 23.632812 13.574219 20.972656 14.070312 Z M 4.074219 35.988281 C 4.074219 24.433594 13.441406 15.0625 25 15.0625 C 36.558594 15.0625 45.925781 24.433594 45.925781 35.988281 L 45.925781 38.769531 L 4.074219 38.769531 Z M 47.605469 42.1875 L 2.390625 42.1875 C 1.824219 42.1875 1.367188 41.726562 1.367188 41.160156 C 1.367188 40.59375 1.824219 40.136719 2.390625 40.136719 L 47.605469 40.136719 C 48.171875 40.136719 48.632812 40.59375 48.632812 41.160156 C 48.632812 41.726562 48.171875 42.1875 47.605469 42.1875 Z M 47.605469 42.1875 "/>
<path style=" stroke:none;fill-rule:nonzero;fill:rgb(0%,0%,0%);fill-opacity:1;" d="M 28.6875 21.1875 L 28.453125 21.1875 C 27.171875 21.191406 25.9375 21.679688 25 22.550781 C 24.0625 21.679688 22.832031 21.191406 21.550781 21.1875 L 21.375 21.1875 C 20.464844 21.183594 19.589844 21.535156 18.941406 22.175781 C 17.65625 23.453125 17.632812 25.527344 18.890625 26.839844 L 23.996094 32.214844 C 24.257812 32.488281 24.621094 32.644531 25 32.644531 C 25.378906 32.644531 25.742188 32.488281 26.003906 32.214844 L 31.109375 26.839844 C 32.03125 25.871094 32.289062 24.445312 31.761719 23.214844 C 31.230469 21.984375 30.023438 21.1875 28.6875 21.1875 Z M 30.121094 25.898438 L 24.988281 31.273438 L 19.878906 25.898438 C 19.136719 25.121094 19.152344 23.894531 19.914062 23.136719 C 20.304688 22.757812 20.828125 22.550781 21.375 22.558594 L 21.550781 22.558594 C 22.6875 22.5625 23.761719 23.085938 24.460938 23.984375 C 24.59375 24.140625 24.792969 24.234375 25 24.234375 C 25.207031 24.234375 25.40625 24.140625 25.539062 23.984375 C 26.238281 23.085938 27.3125 22.5625 28.449219 22.558594 L 28.683594 22.558594 C 29.265625 22.554688 29.820312 22.8125 30.195312 23.261719 C 30.847656 24.03125 30.816406 25.167969 30.121094 25.898438 Z M 30.121094 25.898438 "/>
</g>
</svg>
