<?xml version="1.0" encoding="UTF-8"?>
<svg xmlns="http://www.w3.org/2000/svg" xmlns:xlink="http://www.w3.org/1999/xlink" width="50pt" height="50pt" viewBox="0 0 50 50" version="1.1">
<g id="surface1">
<path style=" stroke:none;fill-rule:nonzero;fill:white;fill-opacity:1;" d="M 46.148438 17.28125 C 47.253906 16.234375 47.949219 14.753906 47.949219 13.113281 C 47.949219 9.949219 45.378906 7.378906 42.214844 7.378906 C 39.050781 7.378906 36.476562 9.949219 36.476562 13.113281 C 36.476562 15.128906 37.519531 16.898438 39.09375 17.921875 C 38.007812 18.660156 37.296875 19.902344 37.296875 21.3125 L 37.296875 27.050781 L 34.015625 27.050781 L 34.015625 22.949219 C 34.015625 20.019531 31.804688 17.59375 28.960938 17.257812 C 30.050781 16.210938 30.738281 14.742188 30.738281 13.113281 C 30.738281 9.949219 28.164062 7.378906 25 7.378906 C 21.835938 7.378906 19.261719 9.949219 19.261719 13.113281 C 19.261719 14.742188 19.949219 16.210938 21.039062 17.257812 C 18.195312 17.59375 15.984375 20.019531 15.984375 22.949219 L 15.984375 27.050781 L 12.703125 27.050781 L 12.703125 21.3125 C 12.703125 19.902344 11.992188 18.660156 10.90625 17.921875 C 12.480469 16.898438 13.523438 15.128906 13.523438 13.113281 C 13.523438 9.949219 10.949219 7.378906 7.785156 7.378906 C 4.621094 7.378906 2.050781 9.949219 2.050781 13.113281 C 2.050781 14.753906 2.746094 16.234375 3.851562 17.28125 C 1.90625 17.597656 0.410156 19.277344 0.410156 21.3125 L 0.410156 33.605469 C 0.410156 35.585938 1.820312 37.242188 3.6875 37.621094 L 3.6875 50 L 5.328125 50 L 5.328125 37.703125 L 12.703125 37.703125 L 12.703125 49.179688 C 12.703125 49.632812 13.070312 50 13.523438 50 L 18.441406 50 C 18.894531 50 19.261719 49.632812 19.261719 49.179688 L 19.261719 36.066406 L 24.179688 36.066406 L 24.179688 48.359375 L 20.902344 48.359375 L 20.902344 50 L 29.097656 50 L 29.097656 48.359375 L 25.820312 48.359375 L 25.820312 36.066406 L 30.738281 36.066406 L 30.738281 49.179688 C 30.738281 49.632812 31.105469 50 31.558594 50 L 36.476562 50 C 36.929688 50 37.296875 49.632812 37.296875 49.179688 L 37.296875 37.703125 L 44.671875 37.703125 L 44.671875 50 L 46.3125 50 L 46.3125 37.621094 C 48.179688 37.242188 49.589844 35.585938 49.589844 33.605469 L 49.589844 21.3125 C 49.589844 19.277344 48.09375 17.597656 46.148438 17.28125 Z M 38.113281 13.113281 C 38.113281 10.855469 39.953125 9.015625 42.214844 9.015625 C 44.472656 9.015625 46.3125 10.855469 46.3125 13.113281 C 46.3125 15.375 44.472656 17.214844 42.214844 17.214844 C 39.953125 17.214844 38.113281 15.375 38.113281 13.113281 Z M 20.902344 13.113281 C 20.902344 10.855469 22.738281 9.015625 25 9.015625 C 27.261719 9.015625 29.097656 10.855469 29.097656 13.113281 C 29.097656 15.375 27.261719 17.214844 25 17.214844 C 22.738281 17.214844 20.902344 15.375 20.902344 13.113281 Z M 26.277344 18.851562 L 25 22.253906 L 23.722656 18.851562 Z M 17.621094 22.949219 C 17.621094 20.691406 19.460938 18.851562 21.722656 18.851562 L 21.972656 18.851562 L 24.234375 24.878906 C 24.351562 25.199219 24.65625 25.410156 25 25.410156 C 25.34375 25.410156 25.648438 25.199219 25.769531 24.878906 L 28.027344 18.851562 L 28.277344 18.851562 C 30.539062 18.851562 32.378906 20.691406 32.378906 22.949219 L 32.378906 27.050781 L 29.097656 27.050781 C 28.644531 27.050781 28.277344 27.417969 28.277344 27.867188 L 28.277344 31.148438 L 21.722656 31.148438 L 21.722656 27.867188 C 21.722656 27.417969 21.355469 27.050781 20.902344 27.050781 L 17.621094 27.050781 Z M 3.6875 13.113281 C 3.6875 10.855469 5.527344 9.015625 7.785156 9.015625 C 10.046875 9.015625 11.886719 10.855469 11.886719 13.113281 C 11.886719 15.375 10.046875 17.214844 7.785156 17.214844 C 5.527344 17.214844 3.6875 15.375 3.6875 13.113281 Z M 17.621094 48.359375 L 14.34375 48.359375 L 14.34375 36.886719 C 14.34375 36.433594 13.976562 36.066406 13.523438 36.066406 L 4.507812 36.066406 C 3.152344 36.066406 2.050781 34.960938 2.050781 33.605469 L 2.050781 21.3125 C 2.050781 19.957031 3.152344 18.851562 4.507812 18.851562 L 8.605469 18.851562 C 9.960938 18.851562 11.066406 19.957031 11.066406 21.3125 L 11.066406 27.867188 C 11.066406 28.320312 11.433594 28.6875 11.886719 28.6875 L 20.082031 28.6875 L 20.082031 31.148438 L 8.605469 31.148438 L 8.605469 23.769531 L 6.96875 23.769531 L 6.96875 31.96875 C 6.96875 32.417969 7.335938 32.785156 7.785156 32.785156 L 15.164062 32.785156 C 16.519531 32.785156 17.621094 33.890625 17.621094 35.246094 Z M 30.828125 34.425781 L 19.171875 34.425781 C 19.046875 33.820312 18.796875 33.261719 18.441406 32.785156 L 31.558594 32.785156 C 31.203125 33.261719 30.953125 33.820312 30.828125 34.425781 Z M 47.949219 33.605469 C 47.949219 34.960938 46.847656 36.066406 45.492188 36.066406 L 36.476562 36.066406 C 36.023438 36.066406 35.65625 36.433594 35.65625 36.886719 L 35.65625 48.359375 L 32.378906 48.359375 L 32.378906 35.246094 C 32.378906 33.890625 33.480469 32.785156 34.835938 32.785156 L 42.214844 32.785156 C 42.664062 32.785156 43.03125 32.417969 43.03125 31.96875 L 43.03125 23.769531 L 41.394531 23.769531 L 41.394531 31.148438 L 29.917969 31.148438 L 29.917969 28.6875 L 38.113281 28.6875 C 38.566406 28.6875 38.933594 28.320312 38.933594 27.867188 L 38.933594 21.3125 C 38.933594 19.957031 40.039062 18.851562 41.394531 18.851562 L 45.492188 18.851562 C 46.847656 18.851562 47.949219 19.957031 47.949219 21.3125 Z M 47.949219 33.605469 "/>


</g>
</svg>
